# xmcd
#
# Track frame offsets: 
#        187
#        23085
#        41805
#        63602
#        85840
#        105360
#        134022
#        154612
#        178722
#        196037
#
# Disc length: 2750 seconds
#
# Revision: 7
# Processed by: cddbd v1.5.2PL0 Copyright (c) Steve Scherf et al.
# Submitted via: ExactAudioCopy v0.95b3
#
DISCID=7e0abc0a
DTITLE=Mylene Farmer - Ainsi Soit Je... [POCP 1001]
DYEAR=1988
DGENRE=Pop
TTITLE0=L'Horloge
TTITLE1=Sans Contrefacon
TTITLE2=Allan
TTITLE3=Pourvu Qu'Elles Soient Douces
TTITLE4=La Ronde Triste
TTITLE5=Ainsi Soit Je...
TTITLE6=Sans Logique
TTITLE7=Jardin De Vienne
TTITLE8=Deshabillez-Moi
TTITLE9=The Farmer's Conclusion
EXTD=
EXTT0=
EXTT1=
EXTT2=
EXTT3=
EXTT4=
EXTT5=
EXTT6=
EXTT7=
EXTT8=
EXTT9=
PLAYORDER=
